<svg width="35" height="32" viewBox="0 0 35 32" fill="none" xmlns="http://www.w3.org/2000/svg">
<path d="M17.4422 17.02C21.8744 17.02 25.4674 13.427 25.4674 8.99481C25.4674 4.56261 21.8744 0.969604 17.4422 0.969604C13.01 0.969604 9.41699 4.56261 9.41699 8.99481C9.41699 13.427 13.01 17.02 17.4422 17.02Z" stroke="#B6BCBE" stroke-miterlimit="10" stroke-linecap="round" stroke-linejoin="round"/>
<path d="M12.0699 14.9204C12.0516 14.9204 12.0516 14.9204 12.0332 14.9388" stroke="#B6BCBE" stroke-miterlimit="10" stroke-linecap="round" stroke-linejoin="round"/>
<path d="M26.2859 16.5396C30.8947 19.351 34.0264 24.3156 34.3467 30.0276C34.3645 30.5436 33.9553 30.9707 33.4392 30.9707H1.44518C0.929146 30.9707 0.519874 30.5436 0.537668 30.0276C0.857965 24.3512 3.97196 19.4044 8.52729 16.5929" stroke="#B6BCBE" stroke-miterlimit="10" stroke-linecap="round" stroke-linejoin="round"/>
</svg>
