<svg width="34" height="35" viewBox="0 0 34 35" fill="none" xmlns="http://www.w3.org/2000/svg">
<path fill-rule="evenodd" clip-rule="evenodd" d="M32.9517 17.4182C32.9517 26.228 25.8099 33.3698 17 33.3698C8.19022 33.3698 1.04844 26.228 1.04844 17.4182C1.04844 8.60833 8.19022 1.46655 17 1.46655C25.8099 1.46655 32.9517 8.60833 32.9517 17.4182ZM17 34.3698C26.3622 34.3698 33.9517 26.7803 33.9517 17.4182C33.9517 8.05605 26.3622 0.466553 17 0.466553C7.63793 0.466553 0.0484352 8.05605 0.0484352 17.4182C0.0484352 26.7803 7.63793 34.3698 17 34.3698ZM19.4693 24.9757C19.6646 25.171 19.9811 25.171 20.1764 24.9757C20.3717 24.7805 20.3717 24.4639 20.1764 24.2686L13.5784 17.6707C13.4274 17.5196 13.4274 17.2993 13.5784 17.1482L20.1764 10.5503C20.3717 10.355 20.3717 10.0384 20.1764 9.84315C19.9811 9.64788 19.6646 9.64788 19.4693 9.84315L12.8713 16.4411C12.3297 16.9827 12.3297 17.8362 12.8713 18.3778L19.4693 24.9757Z" fill="#B6BCBE"/>
</svg>
