<svg width="34" height="35" viewBox="0 0 34 35" fill="none" xmlns="http://www.w3.org/2000/svg">
<path fill-rule="evenodd" clip-rule="evenodd" d="M1.17188 13.1976C1.17188 6.64742 6.44341 1.34351 12.9387 1.34351C19.4341 1.34351 24.7056 6.64742 24.7056 13.1976C24.7056 19.7478 19.4341 25.0517 12.9387 25.0517C6.44341 25.0517 1.17188 19.7478 1.17188 13.1976ZM12.9387 0.343506C5.88446 0.343506 0.171875 6.10183 0.171875 13.1976C0.171875 20.2934 5.88446 26.0517 12.9387 26.0517C19.993 26.0517 25.7056 20.2934 25.7056 13.1976C25.7056 6.10183 19.993 0.343506 12.9387 0.343506ZM25.5594 22.843C25.3643 22.6475 25.0478 22.6472 24.8523 22.8422C24.6568 23.0372 24.6565 23.3538 24.8515 23.5493L32.6862 31.4015L32.6866 31.4019C32.8752 31.5905 32.8752 31.8847 32.6866 32.0733L32.6842 32.0757L31.4166 33.3606C31.2263 33.5378 30.9243 33.537 30.735 33.3581L22.798 25.5957C22.6006 25.4026 22.284 25.4061 22.091 25.6035C21.8979 25.801 21.9014 26.1175 22.0988 26.3106L30.0383 34.0755L30.0383 34.0756L30.0427 34.0798C30.6197 34.6306 31.5345 34.6306 32.1116 34.0798L32.1223 34.0692L33.3937 32.7804L33.395 32.7791C33.9729 32.1998 33.9724 31.2735 33.3937 30.6948L25.5594 22.843Z" fill="#B6BCBE"/>
</svg>
